<?xml version="1.0" encoding="UTF-8"?>
<svg id="Layer_1" data-name="Layer 1" xmlns="http://www.w3.org/2000/svg" xmlns:xlink="http://www.w3.org/1999/xlink" viewBox="0 0 1617 967.16">
  <defs>
    <style>
      .cls-1 {
        fill: #999;
      }

      .cls-1, .cls-2, .cls-3, .cls-4, .cls-5, .cls-6, .cls-7, .cls-8, .cls-9, .cls-10, .cls-11, .cls-12, .cls-13, .cls-14 {
        stroke-width: 0px;
      }

      .cls-15, .cls-16, .cls-17, .cls-18, .cls-19, .cls-20, .cls-21, .cls-22, .cls-23, .cls-24, .cls-25, .cls-26, .cls-27, .cls-28, .cls-29, .cls-30, .cls-31, .cls-32, .cls-33 {
        stroke-miterlimit: 10;
      }

      .cls-15, .cls-16, .cls-17, .cls-18, .cls-19, .cls-20, .cls-21, .cls-22, .cls-23, .cls-24, .cls-25, .cls-26, .cls-27, .cls-29, .cls-30, .cls-32, .cls-33 {
        stroke: #000;
      }

      .cls-15, .cls-17, .cls-23, .cls-6, .cls-24, .cls-26 {
        fill: none;
      }

      .cls-15, .cls-28, .cls-33 {
        stroke-width: 4px;
      }

      .cls-2 {
        fill: #666;
      }

      .cls-3 {
        fill: #ff911a;
      }

      .cls-16, .cls-22, .cls-34, .cls-30, .cls-31 {
        font-family: Aldrich, Aldrich;
      }

      .cls-16, .cls-11, .cls-29, .cls-30 {
        fill: #fff;
      }

      .cls-16, .cls-34, .cls-30, .cls-31 {
        text-decoration: underline;
      }

      .cls-16, .cls-31 {
        font-size: 24.27px;
      }

      .cls-18, .cls-20, .cls-7 {
        fill: gray;
      }

      .cls-18, .cls-27 {
        stroke-width: .75px;
      }

      .cls-4, .cls-21 {
        fill: #e6e6e6;
      }

      .cls-22 {
        font-size: 9.36px;
        letter-spacing: .08em;
        opacity: .47;
        stroke-width: 11px;
      }

      .cls-35 {
        opacity: .39;
      }

      .cls-23 {
        stroke-width: 6px;
      }

      .cls-36 {
        letter-spacing: 0em;
      }

      .cls-8 {
        fill: #b3b3b3;
      }

      .cls-24 {
        stroke-width: 3px;
      }

      .cls-37 {
        opacity: .34;
      }

      .cls-9 {
        fill: #ff781a;
      }

      .cls-10 {
        fill: #ccc;
      }

      .cls-25, .cls-26 {
        stroke-width: 2px;
      }

      .cls-27 {
        fill: red;
      }

      .cls-12 {
        fill: #ff7;
      }

      .cls-28 {
        fill: url(#Summer);
        stroke: #fcee21;
      }

      .cls-34, .cls-38 {
        opacity: .41;
      }

      .cls-34, .cls-30 {
        font-size: 15.71px;
        letter-spacing: .08em;
      }

      .cls-13 {
        fill: #ffa51e;
      }

      .cls-14 {
        fill: #ccbe69;
      }

      .cls-31 {
        stroke: #fff;
      }

      .cls-32 {
        fill: #f2f2f2;
      }

      .cls-39 {
        letter-spacing: .07em;
      }

      .cls-40 {
        opacity: .37;
      }
    </style>
    <radialGradient id="Summer" cx="1405.77" cy="9.11" fx="1405.77" fy="9.11" r="28.35" gradientTransform="translate(403.03 -972.21) rotate(45.05)" gradientUnits="userSpaceOnUse">
      <stop offset="0" stop-color="#fff"/>
      <stop offset=".09" stop-color="#ffecd8"/>
      <stop offset=".21" stop-color="#ffd4a7"/>
      <stop offset=".33" stop-color="#ffc07d"/>
      <stop offset=".46" stop-color="#ffb05a"/>
      <stop offset=".59" stop-color="#ffa340"/>
      <stop offset=".72" stop-color="#ff9a2d"/>
      <stop offset=".86" stop-color="#ff9421"/>
      <stop offset="1" stop-color="#ff931e"/>
    </radialGradient>
  </defs>
  <g class="cls-37">
    <ellipse class="cls-2" cx="829" cy="848.66" rx="788" ry="109.5"/>
  </g>
  <g class="cls-35">
    <ellipse class="cls-2" cx="801" cy="841.66" rx="801" ry="109.5"/>
  </g>
  <g class="cls-38">
    <ellipse class="cls-2" cx="798" cy="857.66" rx="788" ry="109.5"/>
  </g>
  <g>
    <rect class="cls-3" x="214" y="204.16" width="1324" height="644" rx="47.5" ry="47.5"/>
    <path class="cls-5" d="m1490.5,206.16c25.09,0,45.5,20.41,45.5,45.5v549c0,25.09-20.41,45.5-45.5,45.5H261.5c-25.09,0-45.5-20.41-45.5-45.5V251.66c0-25.09,20.41-45.5,45.5-45.5h1229m0-4H261.5c-27.34,0-49.5,22.16-49.5,49.5v549c0,27.34,22.16,49.5,49.5,49.5h1229c27.34,0,49.5-22.16,49.5-49.5V251.66c0-27.34-22.16-49.5-49.5-49.5h0Z"/>
  </g>
  <rect class="cls-3" x="1359.55" y="802.38" width="167.01" height="61" rx="30.5" ry="30.5" transform="translate(-178.27 448.96) rotate(-16.67)"/>
  <rect class="cls-13" x="126.74" y="219.42" width="154.76" height="61" rx="30.5" ry="30.5" transform="translate(-59.6 63.98) rotate(-15.57)"/>
  <rect class="cls-13" x="1387.33" y="799.26" width="133.94" height="61" rx="30.5" ry="30.5" transform="translate(-170.3 424.58) rotate(-15.7)"/>
  <rect class="cls-13" x="1431" y="205.16" width="106.38" height="643" rx="49.5" ry="49.5"/>
  <rect class="cls-13" x="198" y="206.16" width="1322" height="99" rx="49.5" ry="49.5"/>
  <line class="cls-26" x1="1504.5" y1="847.66" x2="1399.18" y2="877.78"/>
  <rect class="cls-29" x="1084.18" y="358.78" width="318" height="495" rx="42.08" ry="42.08"/>
  <g>
    <rect class="cls-9" x="111" y="233.16" width="1324" height="644" rx="47.5" ry="47.5"/>
    <path class="cls-5" d="m1387.5,235.16c25.09,0,45.5,20.41,45.5,45.5v549c0,25.09-20.41,45.5-45.5,45.5H158.5c-25.09,0-45.5-20.41-45.5-45.5V280.66c0-25.09,20.41-45.5,45.5-45.5h1229m0-4H158.5c-27.34,0-49.5,22.16-49.5,49.5v549c0,27.34,22.16,49.5,49.5,49.5h1229c27.34,0,49.5-22.16,49.5-49.5V280.66c0-27.34-22.16-49.5-49.5-49.5h0Z"/>
  </g>
  <g>
    <rect class="cls-11" x="147.68" y="265.28" width="1250.32" height="75" rx="21.56" ry="21.56"/>
    <path class="cls-5" d="m1376.44,266.28c11.34,0,20.56,9.22,20.56,20.56v31.87c0,11.34-9.22,20.56-20.56,20.56H169.24c-11.34,0-20.56-9.22-20.56-20.56v-31.87c0-11.34,9.22-20.56,20.56-20.56h1207.2m0-2H169.24c-12.46,0-22.56,10.1-22.56,22.56v31.87c0,12.46,10.1,22.56,22.56,22.56h1207.2c12.46,0,22.56-10.1,22.56-22.56v-31.87c0-12.46-10.1-22.56-22.56-22.56h0Z"/>
  </g>
  <line class="cls-24" x1="252" y1="204.16" x2="137.5" y2="236.66"/>
  <rect class="cls-20" x="1071.5" y="357.66" width="328" height="495" rx="42.08" ry="42.08"/>
  <line class="cls-15" x1="1520" y1="289.16" x2="1455" y2="381.16"/>
  <line class="cls-15" x1="1479" y1="374.16" x2="1517" y2="318.16"/>
  <line class="cls-15" x1="1453" y1="351.16" x2="1492" y2="301.16"/>
  <line class="cls-15" x1="1458" y1="795.16" x2="1514" y2="729.16"/>
  <line class="cls-15" x1="1488" y1="782.16" x2="1516" y2="748.16"/>
  <line class="cls-15" x1="1461" y1="767.16" x2="1492" y2="733.16"/>
  <circle class="cls-21" cx="1105.5" cy="393.66" r="9"/>
  <circle class="cls-21" cx="1105.5" cy="823.66" r="9"/>
  <circle class="cls-21" cx="1367.5" cy="393.66" r="9"/>
  <circle class="cls-21" cx="1367.5" cy="823.66" r="9"/>
  <g>
    <g>
      <rect class="cls-1" x="136.5" y="364.66" width="918" height="489" rx="27" ry="27"/>
      <path class="cls-5" d="m1027.5,365.16c14.61,0,26.5,11.89,26.5,26.5v435c0,14.61-11.89,26.5-26.5,26.5H163.5c-14.61,0-26.5-11.89-26.5-26.5v-435c0-14.61,11.89-26.5,26.5-26.5h864m0-1H163.5c-15.19,0-27.5,12.31-27.5,27.5v435c0,15.19,12.31,27.5,27.5,27.5h864c15.19,0,27.5-12.31,27.5-27.5v-435c0-15.19-12.31-27.5-27.5-27.5h0Z"/>
    </g>
    <g>
      <rect class="cls-14" x="141.6" y="367.66" width="909.32" height="481" rx="27" ry="27"/>
      <path class="cls-5" d="m1023.92,368.16c14.61,0,26.5,11.89,26.5,26.5v427c0,14.61-11.89,26.5-26.5,26.5H168.6c-14.61,0-26.5-11.89-26.5-26.5v-427c0-14.61,11.89-26.5,26.5-26.5h855.32m0-1H168.6c-15.19,0-27.5,12.31-27.5,27.5v427c0,15.19,12.31,27.5,27.5,27.5h855.32c15.19,0,27.5-12.31,27.5-27.5v-427c0-15.19-12.31-27.5-27.5-27.5h0Z"/>
    </g>
    <line class="cls-17" x1="159.99" y1="368.4" x2="159.99" y2="845.9"/>
    <line class="cls-17" x1="196.99" y1="367.4" x2="196.99" y2="847.4"/>
    <line class="cls-17" x1="214.82" y1="367.82" x2="214.82" y2="847.82"/>
    <line class="cls-17" x1="229.59" y1="367.74" x2="229.59" y2="847.74"/>
    <line class="cls-17" x1="246.91" y1="367.61" x2="246.91" y2="847.61"/>
    <line class="cls-17" x1="263.41" y1="368.16" x2="263.41" y2="848.16"/>
    <line class="cls-17" x1="280.74" y1="368.04" x2="280.74" y2="848.04"/>
    <line class="cls-17" x1="296.63" y1="367.63" x2="296.63" y2="847.63"/>
    <line class="cls-17" x1="313.95" y1="367.51" x2="313.95" y2="847.51"/>
    <line class="cls-17" x1="330.46" y1="368.06" x2="330.46" y2="848.06"/>
    <line class="cls-17" x1="347.78" y1="367.93" x2="347.78" y2="847.93"/>
    <line class="cls-17" x1="362.54" y1="367.84" x2="362.54" y2="847.84"/>
    <line class="cls-17" x1="379.86" y1="367.72" x2="379.86" y2="847.72"/>
    <line class="cls-17" x1="396.37" y1="368.27" x2="396.37" y2="848.27"/>
    <line class="cls-17" x1="413.69" y1="368.14" x2="413.69" y2="848.14"/>
    <line class="cls-17" x1="429.63" y1="366.63" x2="429.63" y2="846.63"/>
    <line class="cls-17" x1="446.95" y1="366.51" x2="446.95" y2="846.51"/>
    <line class="cls-17" x1="177.99" y1="367.4" x2="177.99" y2="847.4"/>
    <line class="cls-17" x1="463.46" y1="367.06" x2="463.46" y2="847.06"/>
    <line class="cls-17" x1="480.78" y1="366.93" x2="480.78" y2="846.93"/>
    <line class="cls-17" x1="495.54" y1="366.84" x2="495.54" y2="846.84"/>
    <line class="cls-17" x1="512.86" y1="366.72" x2="512.86" y2="846.72"/>
    <line class="cls-17" x1="529.37" y1="367.27" x2="529.37" y2="847.27"/>
    <line class="cls-17" x1="546.69" y1="367.14" x2="546.69" y2="847.14"/>
    <line class="cls-17" x1="563.63" y1="367.63" x2="563.63" y2="847.63"/>
    <line class="cls-17" x1="580.95" y1="367.51" x2="580.95" y2="847.51"/>
    <line class="cls-17" x1="597.46" y1="368.06" x2="597.46" y2="848.06"/>
    <line class="cls-17" x1="614.78" y1="367.93" x2="614.78" y2="847.93"/>
    <line class="cls-17" x1="629.54" y1="367.84" x2="629.54" y2="847.84"/>
    <line class="cls-17" x1="646.86" y1="367.72" x2="646.86" y2="847.72"/>
    <line class="cls-17" x1="663.37" y1="368.27" x2="663.37" y2="848.27"/>
    <line class="cls-17" x1="680.69" y1="368.14" x2="680.69" y2="848.14"/>
    <line class="cls-17" x1="698.81" y1="367.63" x2="698.81" y2="847.63"/>
    <line class="cls-17" x1="716.13" y1="367.51" x2="716.13" y2="847.51"/>
    <line class="cls-17" x1="732.64" y1="368.06" x2="732.64" y2="848.06"/>
    <line class="cls-17" x1="749.96" y1="367.93" x2="749.96" y2="847.93"/>
    <line class="cls-17" x1="764.72" y1="367.84" x2="764.72" y2="847.84"/>
    <line class="cls-17" x1="782.04" y1="367.72" x2="782.04" y2="847.72"/>
    <line class="cls-17" x1="798.55" y1="368.27" x2="798.55" y2="848.27"/>
    <line class="cls-17" x1="815.87" y1="368.14" x2="815.87" y2="848.14"/>
    <line class="cls-17" x1="831.81" y1="367.63" x2="831.81" y2="847.63"/>
    <line class="cls-17" x1="849.13" y1="367.51" x2="849.13" y2="847.51"/>
    <line class="cls-17" x1="865.64" y1="368.06" x2="865.64" y2="848.06"/>
    <line class="cls-17" x1="882.96" y1="367.93" x2="882.96" y2="847.93"/>
    <line class="cls-17" x1="897.72" y1="367.84" x2="897.72" y2="847.84"/>
    <line class="cls-17" x1="915.04" y1="367.72" x2="915.04" y2="847.72"/>
    <line class="cls-17" x1="931.55" y1="368.27" x2="931.55" y2="848.27"/>
    <line class="cls-17" x1="948.87" y1="368.14" x2="948.87" y2="848.14"/>
    <line class="cls-17" x1="965.77" y1="367.74" x2="965.77" y2="847.74"/>
    <line class="cls-17" x1="983.09" y1="367.61" x2="983.09" y2="847.61"/>
    <line class="cls-17" x1="999.59" y1="368.16" x2="999.59" y2="848.16"/>
    <line class="cls-17" x1="1016.91" y1="368.04" x2="1016.91" y2="848.04"/>
    <line class="cls-17" x1="1034.36" y1="369.89" x2="1034" y2="845.9"/>
    <line class="cls-17" x1="141.5" y1="400.66" x2="1050.49" y2="399.59"/>
    <line class="cls-17" x1="141.5" y1="409.66" x2="1049.99" y2="409.9"/>
    <line class="cls-17" x1="140.99" y1="419.9" x2="1049.99" y2="419.9"/>
    <line class="cls-17" x1="141.55" y1="430" x2="1050.85" y2="430"/>
    <line class="cls-17" x1="140.99" y1="438.9" x2="1049.99" y2="438.9"/>
    <line class="cls-17" x1="140.99" y1="448.9" x2="1049.99" y2="448.9"/>
    <line class="cls-17" x1="140.99" y1="458.9" x2="1049.99" y2="458.9"/>
    <line class="cls-17" x1="141.36" y1="469.06" x2="1050.66" y2="469.06"/>
    <line class="cls-17" x1="140.99" y1="478.9" x2="1049.99" y2="479.9"/>
    <line class="cls-17" x1="140.99" y1="488.9" x2="1049.99" y2="489.9"/>
    <line class="cls-17" x1="140.99" y1="498.9" x2="1049.99" y2="499.9"/>
    <line class="cls-17" x1="140.99" y1="508.9" x2="1049.99" y2="509.9"/>
    <line class="cls-17" x1="140.87" y1="518.19" x2="1049.99" y2="518.9"/>
    <line class="cls-17" x1="140.99" y1="528.9" x2="1049.99" y2="527.9"/>
    <line class="cls-17" x1="140.99" y1="537.9" x2="1049.99" y2="537.9"/>
    <line class="cls-17" x1="140.99" y1="548.9" x2="1049.99" y2="547.9"/>
    <line class="cls-17" x1="140.99" y1="558.9" x2="1049.99" y2="559.9"/>
    <line class="cls-17" x1="140.95" y1="569.63" x2="1050.25" y2="569.63"/>
    <line class="cls-17" x1="141.33" y1="579.49" x2="1050.63" y2="579.49"/>
    <line class="cls-17" x1="140.57" y1="589.76" x2="1049.87" y2="589.76"/>
    <line class="cls-17" x1="141.52" y1="598.42" x2="1050.82" y2="598.42"/>
    <line class="cls-17" x1="140.76" y1="608.7" x2="1050.06" y2="608.7"/>
    <line class="cls-17" x1="141.14" y1="618.56" x2="1050.44" y2="618.56"/>
    <line class="cls-17" x1="140.99" y1="628.9" x2="1049.99" y2="628.9"/>
    <line class="cls-17" x1="140.99" y1="638.89" x2="1049.99" y2="638.89"/>
    <line class="cls-17" x1="140.99" y1="648.9" x2="1049.99" y2="649.9"/>
    <line class="cls-17" x1="140.99" y1="658.9" x2="1049.99" y2="658.9"/>
    <line class="cls-17" x1="140.99" y1="668.9" x2="1049.99" y2="668.9"/>
    <line class="cls-17" x1="140.99" y1="677.9" x2="1049.99" y2="677.9"/>
    <line class="cls-17" x1="140.99" y1="687.9" x2="1049.99" y2="687.9"/>
    <line class="cls-17" x1="140.99" y1="698.9" x2="1049.99" y2="697.9"/>
    <line class="cls-17" x1="142.14" y1="708.37" x2="1049.99" y2="707.9"/>
    <line class="cls-17" x1="141.52" y1="717.04" x2="1050.82" y2="717.04"/>
    <line class="cls-17" x1="140.76" y1="727.31" x2="1050.06" y2="727.31"/>
    <line class="cls-17" x1="141.14" y1="737.18" x2="1050.44" y2="737.18"/>
    <line class="cls-17" x1="140.38" y1="747.45" x2="1049.99" y2="746.9"/>
    <line class="cls-17" x1="143.47" y1="757.51" x2="1049.99" y2="756.9"/>
    <line class="cls-17" x1="142.71" y1="767.78" x2="1049.99" y2="767.9"/>
    <line class="cls-17" x1="143.09" y1="777.64" x2="1049.99" y2="777.9"/>
    <line class="cls-17" x1="142.33" y1="787.91" x2="1049.99" y2="787.91"/>
    <line class="cls-17" x1="143.28" y1="796.57" x2="1049.99" y2="796.9"/>
    <line class="cls-17" x1="142.52" y1="806.85" x2="1049.99" y2="806.9"/>
    <line class="cls-17" x1="142.9" y1="816.71" x2="1049.99" y2="816.9"/>
    <line class="cls-17" x1="141.33" y1="826.98" x2="1048.99" y2="828.9"/>
    <line class="cls-17" x1="147.5" y1="838.66" x2="1043.99" y2="837.9"/>
    <line class="cls-17" x1="142.44" y1="390.27" x2="1050.26" y2="390.27"/>
    <line class="cls-17" x1="144.5" y1="381.66" x2="1046.99" y2="380.9"/>
    <line class="cls-17" x1="153.5" y1="372.66" x2="1039.99" y2="372.9"/>
  </g>
  <line class="cls-23" x1="168" y1="292.16" x2="1365" y2="293.16"/>
  <line id="Static" class="cls-23" x1="169.5" y1="271.11" x2="169.5" y2="322.2"/>
  <line id="Afro" class="cls-23" x1="262.6" y1="275.67" x2="262.6" y2="318.67"/>
  <line id="Christmas" class="cls-23" x1="354.92" y1="276.75" x2="354.92" y2="319.75"/>
  <line id="ClasicalRock" class="cls-23" x1="448.02" y1="277.06" x2="448.02" y2="318.57"/>
  <line id="Disco" class="cls-23" x1="537.05" y1="276.83" x2="537.05" y2="319.83"/>
  <line id="Drill" class="cls-23" x1="630.14" y1="276.39" x2="630.14" y2="319.39"/>
  <line id="Edm" class="cls-23" x1="722.47" y1="276.47" x2="722.47" y2="319.47"/>
  <line id="HipHop" class="cls-23" x1="815.57" y1="275.87" x2="815.57" y2="318.87"/>
  <line id="Jazz" class="cls-23" x1="907.24" y1="275.83" x2="907.24" y2="318.83"/>
  <line id="Lofi" class="cls-23" x1="996.26" y1="276.33" x2="996.26" y2="319.33"/>
  <line id="Pop" class="cls-23" x1="1089.36" y1="275.9" x2="1089.36" y2="318.9"/>
  <line id="Relaxing" class="cls-23" x1="1181.69" y1="275.98" x2="1181.69" y2="318.98"/>
  <line id="World" class="cls-23" x1="1274.78" y1="275.52" x2="1275" y2="318.52"/>
  <line id="Static-2" data-name="Static" class="cls-23" x1="1368" y1="274.16" x2="1366" y2="325.16"/>
  <g>
    <rect class="cls-13" x="1139" y="172.16" width="40" height="38"/>
    <path class="cls-5" d="m1178,173.16v36h-38v-36h38m2-2h-42v40h42v-40h0Z"/>
  </g>
  <g>
    <g>
      <rect class="cls-7" x="1119.5" y="179.66" width="35" height="37"/>
      <path class="cls-5" d="m1154,180.16v36h-34v-36h34m1-1h-36v38h36v-38h0Z"/>
    </g>
    <g>
      <rect class="cls-7" x="1119.93" y="175.88" width="24.6" height="37" transform="translate(-5.33 354.67) rotate(-17.76)"/>
      <path class="cls-5" d="m1137.98,173.64l10.98,34.28-22.47,7.2-10.98-34.28,22.47-7.2m.65-1.26l-24.38,7.81,11.59,36.19,24.38-7.81-11.59-36.19h0Z"/>
    </g>
  </g>
  <line class="cls-6" x1="1113" y1="180.16" x2="1129" y2="169.16"/>
  <line class="cls-25" x1="1113.04" y1="180.3" x2="1138.96" y2="172.02"/>
  <line class="cls-25" x1="1153" y1="218.16" x2="1179" y2="210.16"/>
  <rect class="cls-1" x="1145.95" y="176.77" width="26.84" height="38" transform="translate(-4.75 360.97) rotate(-17.66)"/>
  <line class="cls-25" x1="1152.06" y1="180.52" x2="1178.06" y2="172.52"/>
  <g>
    <rect class="cls-8" x="1113" y="180.16" width="40" height="38"/>
    <path class="cls-5" d="m1152,181.16v36h-38v-36h38m2-2h-42v40h42v-40h0Z"/>
  </g>
  <rect class="cls-1" x="1154" y="173.16" width="24" height="36"/>
  <line class="cls-25" x1="1152.67" y1="180.29" x2="1178.67" y2="172.29"/>
  <line class="cls-25" x1="1153.79" y1="217.95" x2="1179.79" y2="209.95"/>
  <rect class="cls-1" x="1139" y="173.16" width="14" height="6"/>
  <rect class="cls-1" x="1135.43" y="173.75" width="4.46" height="4.73" transform="translate(4.51 379.21) rotate(-18.96)"/>
  <rect class="cls-1" x="1150.45" y="173.16" width="4.46" height="5"/>
  <line class="cls-33" x1="1145.05" y1="176.16" x2="1384.05" y2="37.16"/>
  <line class="cls-15" x1="1154.11" y1="176.26" x2="1136" y2="176.05"/>
  <polygon class="cls-28" points="1409.23 9.68 1402.69 28.89 1414.81 45.16 1394.52 44.88 1382.8 61.43 1376.79 42.05 1357.43 36.01 1374 24.31 1373.76 4.03 1390.01 16.18 1409.23 9.68"/>
  <rect id="dial" class="cls-27" x="167.5" y="290.66" width="9" height="50"/>
  <g class="cls-40">
    <rect class="cls-12" x="145.07" y="263.16" width="1252.32" height="77" rx="22.56" ry="22.56"/>
  </g>
  <rect class="cls-20" x="1459.5" y="433.66" width="47.5" height="233.5"/>
  <rect class="cls-19" x="1461.5" y="437.66" width="44.83" height="225"/>
  <g id="on-an-off">
    <rect class="cls-21" x="1461.83" y="438.66" width="44.5" height="121" rx="22.25" ry="22.25"/>
    <rect class="cls-18" x="1462.5" y="462.66" width="43" height="5"/>
    <rect class="cls-18" x="1462.5" y="473.66" width="43" height="5"/>
    <rect class="cls-18" x="1462.5" y="483.66" width="43" height="5"/>
    <rect class="cls-18" x="1462.5" y="494.66" width="43" height="5"/>
    <rect class="cls-18" x="1462.5" y="504.66" width="43" height="5"/>
    <rect class="cls-18" x="1462.5" y="514.66" width="43" height="5"/>
    <rect class="cls-18" x="1462.5" y="524.66" width="43" height="5"/>
  </g>
  <g>
    <path class="cls-32" d="m1524.27,444.59c0,.16-.03.32-.09.47s-.15.27-.26.38-.24.2-.38.26-.3.09-.47.09h-4.8c-.16,0-.32-.03-.47-.09s-.27-.15-.38-.26-.2-.24-.26-.38-.09-.3-.09-.47v-6c0-.16.03-.32.09-.47s.15-.27.26-.38.24-.19.38-.26.3-.1.47-.1h4.8c.16,0,.32.03.47.1s.27.15.38.26.2.23.26.38.09.3.09.47v6Zm-6-6v6h4.8v-6h-4.8Z"/>
    <path class="cls-32" d="m1518.14,460.2h-1.2v-8.4h1.2l5.05,6.52v-6.52h1.2v8.4h-1.2l-5.05-6.52v6.52Z"/>
    <path class="cls-32" d="m1524.27,631.79c0,.16-.03.32-.09.47s-.15.27-.26.38-.24.2-.38.26-.3.09-.47.09h-4.8c-.16,0-.32-.03-.47-.09s-.27-.15-.38-.26-.2-.24-.26-.38-.09-.3-.09-.47v-6c0-.16.03-.32.09-.47s.15-.27.26-.38.24-.19.38-.26.3-.1.47-.1h4.8c.16,0,.32.03.47.1s.27.15.38.26.2.23.26.38.09.3.09.47v6Zm-6-6v6h4.8v-6h-4.8Z"/>
    <path class="cls-32" d="m1517.85,638.99h6.12v1.2h-4.92v2.4h4.2v1.2h-4.2v3.6h-1.2v-8.4Z"/>
    <path class="cls-32" d="m1517.85,653.39h6.12v1.2h-4.92v2.4h4.2v1.2h-4.2v3.6h-1.2v-8.4Z"/>
  </g>
  <line class="cls-24" x1="1539.54" y1="797.1" x2="1433.22" y2="827.23"/>
  <line class="cls-24" x1="1383.61" y1="233.06" x2="1491.5" y2="203.66"/>
  <line class="cls-24" x1="1434.5" y1="268.66" x2="1535.5" y2="237.66"/>
  <g id="Volume-button">
    <g>
      <g>
        <path class="cls-10" d="m1168.63,754.42c-32.19,0-58.38-26.19-58.38-58.38s26.19-58.38,58.38-58.38,58.38,26.19,58.38,58.38-26.19,58.38-58.38,58.38Z"/>
        <path class="cls-5" d="m1168.63,640.16c30.81,0,55.88,25.07,55.88,55.88s-25.07,55.88-55.88,55.88-55.88-25.07-55.88-55.88,25.07-55.88,55.88-55.88m0-5c-33.62,0-60.88,27.26-60.88,60.88s27.26,60.88,60.88,60.88,60.88-27.26,60.88-60.88-27.26-60.88-60.88-60.88h0Z"/>
      </g>
      <g>
        <path class="cls-4" d="m1154.88,759.66c-32.19,0-58.38-26.19-58.38-58.38s26.19-58.38,58.38-58.38,58.38,26.19,58.38,58.38-26.19,58.38-58.38,58.38Z"/>
        <path class="cls-5" d="m1154.88,645.39c30.81,0,55.88,25.07,55.88,55.88s-25.07,55.88-55.88,55.88-55.88-25.07-55.88-55.88,25.07-55.88,55.88-55.88m0-5c-33.62,0-60.88,27.26-60.88,60.88s27.26,60.88,60.88,60.88,60.88-27.26,60.88-60.88-27.26-60.88-60.88-60.88h0Z"/>
      </g>
      <polygon class="cls-33" points="1111.16 695.38 1108.21 695.38 1106.73 698 1108.21 700.62 1111.16 700.62 1112.63 698 1111.16 695.38"/>
    </g>
    <text class="cls-30" transform="translate(1118.99 711.08)"><tspan x="0" y="0">VOLUME</tspan></text>
    <text class="cls-34" transform="translate(1120.02 712.54)"><tspan x="0" y="0">VOLUME</tspan></text>
    <text class="cls-22" transform="translate(1151.64 681.5) scale(1.04 1)"><tspan x="0" y="0">&lt;</tspan></text>
  </g>
  <g id="Station-button">
    <g>
      <g>
        <ellipse class="cls-10" cx="1245.79" cy="515.58" rx="92.71" ry="91.04"/>
        <path class="cls-5" d="m1245.79,427.04c49.74,0,90.21,39.72,90.21,88.54s-40.47,88.54-90.21,88.54-90.21-39.72-90.21-88.54,40.47-88.54,90.21-88.54m0-5c-52.59,0-95.21,41.88-95.21,93.54s42.63,93.54,95.21,93.54,95.21-41.88,95.21-93.54-42.63-93.54-95.21-93.54h0Z"/>
      </g>
      <g>
        <ellipse class="cls-4" cx="1229.48" cy="520.64" rx="87.98" ry="89.02"/>
        <path class="cls-5" d="m1229.48,434.12c47.13,0,85.48,38.81,85.48,86.52s-38.35,86.52-85.48,86.52-85.48-38.81-85.48-86.52,38.35-86.52,85.48-86.52m0-5c-49.97,0-90.48,40.97-90.48,91.52s40.51,91.52,90.48,91.52,90.48-40.97,90.48-91.52-40.51-91.52-90.48-91.52h0Z"/>
      </g>
      <polygon class="cls-33" points="1228.67 587.56 1223.92 587.56 1221.55 591.61 1223.92 595.65 1228.67 595.65 1231.04 591.61 1228.67 587.56"/>
    </g>
    <text class="cls-31" transform="translate(1172.01 529.45) scale(1.04 1)"><tspan class="cls-39" x="0" y="0">S</tspan><tspan class="cls-36" x="19.3" y="0">TA</tspan><tspan class="cls-39" x="51.1" y="0">TION</tspan></text>
    <text class="cls-16" transform="translate(1169.54 527.89) scale(1.04 1)"><tspan class="cls-39" x="0" y="0">S</tspan><tspan class="cls-36" x="19.3" y="0">TA</tspan><tspan class="cls-39" x="51.1" y="0">TION</tspan></text>
  </g>
  <g id="Volume-button2">
    <g>
      <g>
        <path class="cls-10" d="m1321.49,754.46c-32.19,0-58.38-26.19-58.38-58.38s26.19-58.38,58.38-58.38,58.38,26.19,58.38,58.38-26.19,58.38-58.38,58.38Z"/>
        <path class="cls-5" d="m1321.49,640.19c30.81,0,55.88,25.07,55.88,55.88s-25.07,55.88-55.88,55.88-55.88-25.07-55.88-55.88,25.07-55.88,55.88-55.88m0-5c-33.62,0-60.88,27.26-60.88,60.88s27.26,60.88,60.88,60.88,60.88-27.26,60.88-60.88-27.26-60.88-60.88-60.88h0Z"/>
      </g>
      <g>
        <path class="cls-4" d="m1307.74,759.69c-32.19,0-58.38-26.19-58.38-58.38s26.19-58.38,58.38-58.38,58.38,26.19,58.38,58.38-26.19,58.38-58.38,58.38Z"/>
        <path class="cls-5" d="m1307.74,645.43c30.81,0,55.88,25.07,55.88,55.88s-25.07,55.88-55.88,55.88-55.88-25.07-55.88-55.88,25.07-55.88,55.88-55.88m0-5c-33.62,0-60.88,27.26-60.88,60.88s27.26,60.88,60.88,60.88,60.88-27.26,60.88-60.88-27.26-60.88-60.88-60.88h0Z"/>
      </g>
      <polygon class="cls-33" points="1264.02 695.42 1261.07 695.42 1259.59 698.04 1261.07 700.66 1264.02 700.66 1265.49 698.04 1264.02 695.42"/>
    </g>
    <text class="cls-30" transform="translate(1271.85 711.12)"><tspan x="0" y="0">VOLUME</tspan></text>
    <text class="cls-34" transform="translate(1272.88 712.58)"><tspan x="0" y="0">VOLUME</tspan></text>
    <text class="cls-22" transform="translate(1304.5 681.54) scale(1.04 1)"><tspan x="0" y="0">&gt;</tspan></text>
  </g>
</svg>